<svg width="1440" height="432" viewBox="0 0 1440 432" fill="none" xmlns="http://www.w3.org/2000/svg">
<rect width="1440" height="432" fill="#171B1B"/>
<mask id="mask0_1_623" style="mask-type:luminance" maskUnits="userSpaceOnUse" x="0" y="0" width="1440" height="432">
<rect width="1440" height="432" fill="white"/>
</mask>
<g mask="url(#mask0_1_623)">
<path fill-rule="evenodd" clip-rule="evenodd" d="M844.281 520.152C844.795 518.776 845.31 517.398 846.157 516.164C845.536 518.086 844.709 519.935 843.69 521.679C843.898 521.175 844.089 520.664 844.281 520.152ZM846.176 516.129L846.64 515.515C845.117 519.964 843.069 524.217 840.54 528.183C836.907 533.772 832.47 538.796 827.372 543.093C822.372 547.291 817.082 551.132 811.541 554.588C803.493 559.694 795.516 564.9 788.045 570.846C781.861 575.702 776.698 581.731 772.853 588.587C771.332 591.315 769.859 594.065 768.515 596.972C768.294 596.651 768.402 596.425 768.524 596.17C768.617 595.976 768.719 595.765 768.689 595.482C768.565 595.761 768.414 596.026 768.272 596.277C767.977 596.798 767.717 597.257 767.8 597.643C767.994 598.286 767.824 598.983 767.354 599.462C766.15 600.402 765.724 601.714 765.299 603.021C765.106 603.616 764.913 604.21 764.647 604.767C764.322 605.448 764.169 606.193 764.015 606.943C763.849 607.747 763.683 608.558 763.302 609.303C762.998 609.897 762.741 610.511 762.484 611.125C761.947 612.405 761.41 613.686 760.451 614.792C759.818 615.523 759.608 616.721 759.435 617.825C759.274 618.846 758.83 620.064 758.085 620.691C757.311 621.343 756.947 622.186 756.583 623.026L756.583 623.026C756.357 623.547 756.132 624.068 755.81 624.541C753.783 627.587 751.575 630.508 749.199 633.289C745.738 637.184 741.877 640.705 737.679 643.793C730.756 648.994 722.843 650.818 714.36 650.624C705.863 650.428 698.642 647.361 692.976 640.875L692.864 640.747C689.918 637.375 686.972 634.003 684.334 630.382C682.606 628.048 681.19 625.499 680.123 622.8C679.257 620.561 677.797 618.728 676.339 616.897L676.338 616.895C676.222 616.75 676.107 616.605 675.992 616.46C671.85 611.239 668.303 605.676 666.009 599.388C663.693 593.038 662.912 586.442 663.104 579.729C663.358 570.802 665.6 562.284 668.409 553.861L668.575 553.364L668.575 553.364C672.563 541.411 676.554 529.446 678.292 516.89C679.533 507.917 680.016 498.93 678.56 489.923C677.916 485.937 676.415 482.262 674.717 478.626C673.643 476.325 672.518 474.047 671.393 471.769C669.385 467.704 667.378 463.639 665.656 459.441C663.726 454.736 661.938 449.973 661.047 444.942C659.484 436.126 659.048 427.264 660.868 418.456C662.819 409.017 666.322 400.246 673.101 393.103C679.553 386.306 687.177 381.836 696.803 381.623C702.068 381.508 707.054 382.948 711.83 385.045C716.142 386.938 720.354 389.041 724.566 391.145L724.567 391.145L724.567 391.145L724.567 391.145L724.567 391.145L724.567 391.145L724.568 391.146L724.568 391.146L724.568 391.146L724.568 391.146C728.924 393.321 733.279 395.496 737.747 397.439C738.773 397.886 739.798 398.34 740.822 398.793C745.735 400.97 750.648 403.147 755.866 404.544C763.57 406.608 771.224 406.179 778.859 404.127C782.089 403.262 785.291 402.302 788.493 401.342L788.496 401.341C790.381 400.775 792.266 400.21 794.157 399.664C800.278 397.897 806.469 396.505 812.885 396.374C824.158 396.145 832.939 400.943 839.738 409.701C843.659 414.824 846.783 420.509 849.003 426.563C849.829 428.755 850.506 430.988 851.182 433.215C851.299 433.603 851.417 433.991 851.535 434.379C852.267 436.77 852.758 439.227 853.002 441.714C853.102 442.746 853.317 443.765 853.532 444.788L853.532 444.788L853.532 444.788C853.731 445.734 853.931 446.682 854.042 447.648C854.906 454.931 855.283 462.262 855.17 469.593C855.088 473.99 854.689 478.36 854.257 482.721C853.912 486.209 853.36 489.68 852.666 493.141C852.497 493.986 852.334 494.833 852.171 495.681C851.783 497.701 851.393 499.725 850.916 501.722C850.726 502.512 850.39 503.26 850.051 504.014C849.737 504.711 849.421 505.412 849.218 506.157C848.425 509.255 847.404 512.29 846.164 515.238C846.034 515.53 845.929 515.835 846.176 516.129ZM673.056 402.556L672.861 402.524C672.677 402.89 672.484 403.253 672.291 403.616C671.869 404.411 671.447 405.207 671.106 406.036C670.981 406.34 670.856 406.642 670.73 406.945C669.23 410.57 667.734 414.183 667.669 418.259C667.66 418.78 667.522 419.311 667.381 419.855C667.208 420.519 667.031 421.202 667.079 421.907C667.139 422.779 667.01 423.628 666.88 424.486C666.748 425.356 666.615 426.235 666.677 427.154C666.866 429.966 666.972 432.81 666.935 435.637C666.918 436.894 667.122 438.109 667.325 439.323L667.325 439.323L667.325 439.323C667.426 439.921 667.526 440.518 667.599 441.119C667.852 442.547 668.183 443.961 668.592 445.354C669.197 447.976 670.023 450.543 671.06 453.027C672.126 455.528 673.3 457.998 674.505 460.445C674.975 461.398 675.461 462.345 675.947 463.291C676.691 464.742 677.436 466.192 678.122 467.669C679.432 470.543 680.927 473.329 682.597 476.01C683.038 476.706 683.314 477.453 683.591 478.201L683.591 478.201C683.842 478.88 684.093 479.56 684.468 480.202C685.208 481.342 685.809 482.565 686.26 483.846C686.976 486.187 687.517 488.579 687.876 491C689.019 499.107 688.692 507.204 687.596 515.278C687.544 515.662 687.496 516.047 687.447 516.432L687.447 516.433L687.447 516.433L687.447 516.433L687.447 516.433L687.447 516.433L687.447 516.433L687.447 516.433L687.447 516.433C687.184 518.546 686.919 520.669 685.976 522.643C685.588 523.353 685.348 524.134 685.269 524.939C685.211 526.466 684.914 527.973 684.39 529.407C683.802 531.076 683.339 532.778 682.875 534.482L682.875 534.482C682.497 535.872 682.119 537.262 681.672 538.635C680.064 543.585 678.412 548.518 676.515 553.36C675.986 554.709 675.547 556.087 675.107 557.465L675.107 557.465L675.107 557.465L675.107 557.465L675.107 557.465L675.107 557.466L675.107 557.466L675.107 557.466L675.107 557.466L675.107 557.466C674.587 559.096 674.067 560.727 673.398 562.313C672.835 563.652 672.599 565.131 672.364 566.607C672.27 567.197 672.177 567.786 672.062 568.365C670.163 577.969 670.168 587.487 673.722 596.755C673.93 597.295 673.921 597.826 673.913 598.349C673.904 598.963 673.894 599.567 674.234 600.162C677.065 605.127 679.827 610.128 682.378 615.246C684.133 618.766 686.602 621.777 689.071 624.788C690.374 626.378 691.677 627.967 692.876 629.631L692.935 629.714L692.989 629.789L692.99 629.79C693.585 630.612 693.617 630.656 693.613 631.942C693.613 632.043 693.721 632.147 693.824 632.247C693.862 632.284 693.9 632.321 693.932 632.357C694.699 633.23 695.442 634.124 696.184 635.018C697.702 636.847 699.221 638.676 700.947 640.317C701.21 640.567 701.471 640.822 701.732 641.076C703.065 642.376 704.403 643.681 706.124 644.48C713.293 647.802 720.403 647.395 727.385 643.958C731.321 642.02 734.714 639.275 737.977 636.376C744.69 630.446 750.069 623.16 753.758 615C755.251 611.71 756.651 608.38 758.051 605.049C760.143 600.073 762.236 595.096 764.643 590.25C768.504 582.329 773.914 575.261 780.555 569.464C788.629 562.454 797.515 556.575 806.457 550.768C812.588 546.786 818.566 542.593 823.898 537.563C831.397 530.489 836.641 521.976 840.074 512.278C842.157 506.428 843.835 500.442 845.097 494.361C848.526 477.689 849.53 460.877 847.604 443.918C846.725 436.184 845.074 428.665 841.673 421.601C839.379 416.839 836.779 412.28 833.095 408.422C830.933 406.159 828.524 404.256 825.449 403.393C821.681 402.329 817.753 401.953 813.852 402.282C806.771 402.873 800.035 404.925 793.297 406.978C792.478 407.227 791.658 407.477 790.838 407.724C783.419 409.958 776.003 412.067 768.077 411.673C763.55 411.485 759.073 410.65 754.782 409.192C744.222 405.53 734.333 400.389 724.449 395.251L724.448 395.25L723.28 394.643C721.943 393.949 720.623 393.221 719.303 392.493L719.302 392.493C715.935 390.637 712.567 388.781 708.925 387.474C705.525 386.254 702.06 385.408 698.412 385.58C691.978 385.97 685.886 388.596 681.189 393.003C681.071 393.14 680.928 393.253 680.767 393.337C679.018 394.016 678.098 395.478 677.176 396.944L677.176 396.945C677.085 397.09 676.993 397.235 676.901 397.38C676.836 397.481 676.774 397.593 676.71 397.706C676.511 398.06 676.303 398.43 676.008 398.539C675.238 398.822 674.959 399.458 674.675 400.105C674.445 400.63 674.211 401.162 673.709 401.522C673.436 401.717 673.271 402.193 673.091 402.71C672.945 403.127 672.791 403.571 672.563 403.916L673.056 402.556ZM765.302 591.892C767.45 587.363 770.134 583.107 773.298 579.217C770.068 583.856 767.259 588.774 764.905 593.913C762.858 598.258 761.012 602.689 759.166 607.12C758.266 609.278 757.367 611.436 756.445 613.584C755.581 615.7 754.533 617.736 753.313 619.669C753.14 618.957 753.486 618.495 753.822 618.047C753.986 617.828 754.148 617.612 754.245 617.371C754.876 615.824 755.541 614.291 756.206 612.758C756.833 611.311 757.461 609.864 758.059 608.406C760.342 602.843 762.686 597.308 765.302 591.892ZM667.357 403.895C670.127 399.04 673.566 394.598 677.573 390.699C673.11 394.168 669.596 398.707 667.357 403.895ZM680.737 515.784C681.957 509.456 682.225 502.981 681.531 496.572C681.622 502.991 681.271 509.391 680.737 515.784ZM665.219 586.194C665.644 591.932 666.584 597.544 669.504 602.634C667.451 597.335 666.013 591.819 665.219 586.194ZM831.133 532.049L831.133 532.049C834.263 527.653 837.394 523.258 839.471 518.218C837.476 523.925 834.28 529.137 830.099 533.504C830.439 533.023 830.782 532.542 831.124 532.062L831.133 532.049ZM664.062 411.168C664.241 411.119 664.372 411.09 664.465 411.069C664.597 411.039 664.652 411.027 664.66 411C665.236 408.998 666.023 407.063 667.007 405.227C667.064 405.155 667.088 405.062 667.073 404.971C667.059 404.88 667.008 404.799 666.932 404.747C666.667 404.578 666.492 404.767 666.412 404.975C665.814 406.529 665.226 408.087 664.599 409.745L664.598 409.747L664.597 409.75C664.422 410.214 664.244 410.686 664.062 411.168ZM687.712 498.568C687.902 496.107 687.711 493.631 687.146 491.227L687.712 498.568ZM764.294 603.411C765.665 601.39 765.929 600.254 765.064 599.419C765.742 600.415 765.319 601.062 764.876 601.738C764.554 602.231 764.221 602.739 764.294 603.411ZM763.433 607.973L763.575 608.07L761.405 612.945L761.25 612.876L763.433 607.973Z" fill="#9EAD8D"/>
<path fill-rule="evenodd" clip-rule="evenodd" d="M1431.26 21.2966L1431.26 21.2967L1431.26 21.2967L1431.26 21.2967C1431.14 21.3392 1431.02 21.3835 1430.9 21.4293C1430.34 20.5129 1430.12 20.3859 1429.31 20.7343L1429.26 20.7566C1428.87 20.9238 1428.45 21.1014 1428.23 21.5595C1428.12 21.7817 1427.97 21.9839 1427.82 22.1864C1427.68 22.3794 1427.54 22.5726 1427.43 22.7838C1426.99 23.6548 1426.67 24.5622 1426.9 25.5696C1426.98 25.8932 1427.04 26.2205 1427.1 26.5597L1427.1 26.5597C1427.13 26.7164 1427.16 26.8757 1427.19 27.0382L1427.52 27.2616C1427.56 27.2886 1427.6 27.3151 1427.64 27.3417L1427.64 27.3417L1427.64 27.3418L1427.64 27.3418L1427.64 27.3418L1427.64 27.3418L1427.64 27.3418L1427.64 27.3419L1427.64 27.3419L1427.64 27.3419L1427.64 27.3419L1427.64 27.3419L1427.64 27.342L1427.64 27.342L1427.64 27.342L1427.64 27.342L1427.64 27.342L1427.64 27.342L1427.64 27.3421L1427.64 27.3421L1427.64 27.3421L1427.64 27.3421L1427.64 27.3421L1427.64 27.3422L1427.64 27.3422L1427.64 27.3422L1427.64 27.3422L1427.64 27.3422L1427.64 27.3423L1427.64 27.3423L1427.64 27.3423L1427.64 27.3423L1427.64 27.3424L1427.64 27.3424L1427.64 27.3424L1427.64 27.3424L1427.64 27.3425L1427.64 27.3425L1427.64 27.3425L1427.64 27.3425L1427.64 27.3425L1427.64 27.3426L1427.64 27.3426L1427.64 27.3426L1427.64 27.3426C1427.72 27.3959 1427.8 27.4493 1427.88 27.5056C1428.5 27.9459 1428.5 27.9481 1428.24 28.8633L1428.23 28.8846C1428.21 28.9703 1428.21 29.0686 1428.2 29.1651C1428.2 29.3111 1428.19 29.4529 1428.12 29.5403C1427.67 30.058 1427.81 30.5599 1428.02 31.0941L1428.67 30.5706L1429.39 29.9883L1429.54 30.1435L1428.63 31.4906C1429.34 32.2441 1429.79 31.7482 1430.21 31.2856C1430.24 31.2568 1430.27 31.2282 1430.29 31.2C1430.64 31.7653 1431 32.0644 1431.58 31.7329C1432.04 31.4662 1432.09 31.7494 1432.15 32.0381L1432.15 32.0382L1432.15 32.0382C1432.15 32.0779 1432.16 32.1176 1432.17 32.1561C1433.16 31.7413 1433.98 30.9984 1434.5 30.0517C1434.92 29.3333 1435.4 28.6443 1435.88 27.9552L1435.88 27.9551L1435.88 27.955L1435.88 27.955L1435.88 27.9549L1435.88 27.9548L1435.88 27.9548L1435.88 27.9547L1435.88 27.9547L1435.88 27.9546L1435.88 27.9545L1435.88 27.9545L1435.88 27.9544L1435.88 27.9543L1435.88 27.9543L1435.88 27.9542L1435.88 27.9541L1435.88 27.9541L1435.88 27.954L1435.88 27.954L1435.88 27.9539L1435.88 27.9538L1435.88 27.9538C1436.12 27.5994 1436.37 27.2451 1436.61 26.8866C1436.74 26.6712 1436.85 26.4494 1436.96 26.222L1436.83 26.1439L1435.93 27.2342C1435.99 26.8446 1436.15 26.4765 1436.39 26.1614C1436.6 25.8441 1436.78 25.5116 1436.93 25.1669C1437.04 24.8349 1437.13 24.4957 1437.19 24.152L1436.62 24.5829C1436.71 23.5536 1436.71 23.5532 1435.82 23.2245L1435.82 23.2219C1435.7 23.1767 1435.5 23.1012 1435.49 23.0209C1435.43 22.5781 1435.22 22.5264 1434.8 22.5405C1434.7 22.5437 1434.61 22.4039 1434.52 22.2499C1434.42 22.1079 1434.33 21.9538 1434.2 21.8886C1433.88 21.7342 1433.52 21.6538 1433.16 21.653C1432.93 21.644 1432.84 21.4802 1432.76 21.3206C1432.69 21.1734 1432.61 21.0298 1432.42 21.0147C1432.29 20.9949 1432.15 21.0005 1432.01 21.0314C1431.77 21.1075 1431.52 21.1971 1431.26 21.2966ZM1446.57 47.8172C1446.4 47.7672 1446.28 47.5514 1446.04 47.1276C1445.9 47.1832 1445.75 47.2034 1445.6 47.2239C1445.28 47.2675 1444.96 47.3119 1444.7 47.7003C1444.36 48.2054 1444.23 48.8191 1444.32 49.4195C1444.32 49.4883 1444.33 49.5603 1444.34 49.6331C1444.35 49.8663 1444.37 50.1068 1444.49 50.2681C1444.84 50.741 1444.91 51.28 1444.98 51.8177C1445.02 52.079 1445.05 52.3401 1445.12 52.5931C1445.36 53.4902 1445.06 54.3595 1444.63 55.1003C1443.6 56.899 1443.6 58.8493 1443.59 60.798L1443.59 60.9557C1443.59 61.5866 1444.03 61.9975 1444.48 62.4147C1444.56 62.486 1444.63 62.5574 1444.71 62.6301L1444.74 62.6658C1445.55 63.4548 1445.75 63.6402 1446.55 63.2049L1446.64 63.1569C1447.15 62.8812 1447.47 62.7016 1447.68 63.4841C1447.69 63.5432 1447.92 63.5552 1448.1 63.5645L1448.13 63.5659C1448.15 63.5671 1448.17 63.5682 1448.19 63.5694C1448.26 63.5739 1448.36 63.5639 1448.44 63.5547L1448.45 63.5547C1448.56 63.5423 1448.67 63.5314 1448.68 63.5595C1448.93 64.2487 1449.29 63.806 1449.46 63.5844L1449.47 63.5732C1449.53 63.4983 1449.59 63.4232 1449.66 63.3476L1449.66 63.3476L1449.66 63.3476L1449.66 63.3475L1449.66 63.3474C1450.06 62.8489 1450.48 62.333 1450.68 61.7532C1450.75 61.5493 1450.84 61.3479 1450.93 61.1454L1450.93 61.1454L1450.93 61.1453L1450.93 61.1453L1450.93 61.1452L1450.93 61.1451L1450.93 61.1451L1450.93 61.145L1450.93 61.145L1450.93 61.1449L1450.93 61.1448L1450.93 61.1448L1450.93 61.1447L1450.93 61.1447L1450.93 61.1446L1450.93 61.1446L1450.93 61.1445L1450.93 61.1444L1450.93 61.1444L1450.93 61.1443L1450.93 61.1443L1450.93 61.1442L1450.93 61.1441L1450.93 61.1441L1450.93 61.144C1451.16 60.636 1451.39 60.1214 1451.28 59.5453C1451.18 59.1742 1451.27 58.775 1451.51 58.4764C1451.6 58.3166 1451.64 58.1356 1451.63 57.9548C1451.63 57.835 1451.64 57.7152 1451.64 57.5954C1451.67 57.0757 1451.69 56.5556 1451.68 56.0376C1451.66 55.6898 1451.63 55.343 1451.59 54.9962C1451.55 54.6418 1451.51 54.2874 1451.5 53.9321C1451.48 53.4301 1451.42 52.93 1451.36 52.4366L1451.36 52.4365L1451.36 52.4356C1451.35 52.3378 1451.34 52.2403 1451.33 52.143C1451.31 52.0314 1451.3 51.9185 1451.29 51.805L1451.29 51.8049C1451.21 51.0383 1451.13 50.2473 1450.47 49.6556C1450.02 49.2103 1449.6 48.7406 1449.2 48.2488C1448.73 48.3445 1448.41 48.1014 1448.09 47.8594C1447.89 47.704 1447.68 47.549 1447.44 47.4844C1446.97 47.7425 1446.75 47.8692 1446.57 47.8172ZM1482.42 187.344C1483.3 186.398 1484.32 185.716 1485.59 185.624C1485.69 185.423 1485.78 185.237 1485.86 185.064L1485.86 185.063L1485.87 185.061L1485.87 185.061C1486.04 184.715 1486.18 184.416 1486.35 184.133C1486.69 183.575 1486.92 182.926 1486.49 182.442C1485.98 181.865 1485.78 181.377 1486.19 180.696C1486.23 180.611 1486.23 180.513 1486.19 180.431C1485.76 179.764 1485.66 179.014 1485.57 178.264L1485.57 178.264C1485.51 177.872 1485.46 177.481 1485.37 177.102L1485.33 176.953C1485.11 176.103 1485.1 176.058 1484.08 175.472C1483.88 175.355 1483.67 175.253 1483.42 175.136L1483.28 175.066C1483.2 175.029 1483.12 174.989 1483.03 174.947C1482.94 174.166 1482.89 173.379 1482.9 172.592C1482.91 172.375 1482.88 172.153 1482.86 171.931C1482.8 171.464 1482.74 170.995 1483.05 170.558C1482.72 170.263 1482.69 169.865 1482.66 169.504C1482.64 169.269 1482.62 169.05 1482.52 168.885L1481.13 168.303L1480.67 168.976C1480.61 168.757 1480.58 168.629 1480.56 168.571L1479.91 168.563C1479.52 170.941 1479.36 173.349 1479.43 175.754C1479.46 176.123 1479.26 176.475 1478.94 176.648C1478.94 176.272 1478.93 175.905 1478.92 175.545C1478.91 174.753 1478.9 173.994 1478.95 173.239C1479.01 172.271 1479.13 171.306 1479.25 170.34L1479.25 170.34L1479.25 170.339L1479.25 170.338L1479.25 170.337L1479.25 170.337C1479.3 169.92 1479.35 169.504 1479.4 169.086C1478.44 169.11 1478.44 169.113 1478.3 169.861L1478.29 169.895C1477.88 172.074 1477.8 174.281 1477.71 176.482L1477.71 176.482C1477.7 176.817 1477.68 177.152 1477.67 177.487C1477.56 179.97 1477.55 182.467 1478.19 184.919C1478.31 185.397 1478.53 185.814 1478.74 186.231L1478.74 186.231C1478.84 186.42 1478.93 186.609 1479.02 186.804C1479.16 187.032 1479.41 187.171 1479.68 187.174C1480.06 187.095 1480.34 187.209 1480.65 187.331L1480.71 187.354C1480.76 187.378 1480.82 187.401 1480.89 187.423C1480.92 187.436 1480.96 187.451 1481 187.466C1481.45 187.629 1481.98 187.823 1482.42 187.344ZM1493.31 146.016C1493.25 145.694 1493.19 145.38 1493.14 145.073C1493.03 144.421 1492.93 143.799 1492.76 143.198C1492.16 141.147 1492.4 139.104 1492.64 137.062C1492.7 136.581 1492.76 136.101 1492.8 135.62C1492.89 134.665 1493.45 133.915 1493.99 133.174L1493.99 133.173C1494.09 133.035 1494.2 132.897 1494.29 132.759C1494.37 132.654 1494.54 132.618 1494.71 132.58C1494.79 132.563 1494.88 132.545 1494.95 132.519L1494.95 132.552C1494.89 132.995 1494.84 133.415 1494.76 134.022L1495.88 132.362C1496.03 132.382 1496.17 132.409 1496.31 132.435C1496.6 132.492 1496.88 132.545 1497.14 132.506C1497.53 132.466 1497.91 132.64 1498.14 132.961C1498.32 133.163 1498.42 133.438 1498.52 133.725C1498.57 133.853 1498.61 133.983 1498.67 134.111C1497.89 134.857 1497.74 135.817 1497.65 136.862C1497.81 136.917 1497.95 137.025 1498.09 137.136C1498.34 137.333 1498.6 137.536 1499.01 137.449C1499.2 137.46 1499.38 137.568 1499.48 137.736C1499.61 138.017 1499.76 138.292 1499.91 138.566C1500.4 139.45 1500.89 140.336 1500.65 141.457L1500.64 141.532L1500.64 141.533C1500.58 141.782 1500.52 142.072 1500.62 142.259C1500.69 142.39 1500.63 142.515 1500.58 142.639C1500.51 142.811 1500.44 142.981 1500.68 143.162C1500.92 143.334 1500.78 143.486 1500.65 143.641C1500.58 143.719 1500.51 143.798 1500.48 143.879C1500.42 144.188 1500.32 144.491 1500.21 144.787C1500.07 145.043 1499.91 145.288 1499.73 145.518C1498.3 145.726 1496.93 146.283 1495.75 147.139L1493.31 146.016ZM1494.38 78.596L1494.38 78.596C1493.8 78.6017 1493.23 78.6074 1492.66 78.5833C1492.62 78.5815 1492.58 78.4508 1492.53 78.2859L1492.53 78.2857L1492.52 78.2854C1492.5 78.198 1492.47 78.1009 1492.43 78.0084C1492.2 78.1432 1491.97 78.2609 1491.72 78.3605C1491.44 78.4346 1491.15 78.494 1490.87 78.5387L1490.79 78.5552C1490.24 78.6751 1489.69 78.7939 1489.55 77.9583C1489.55 77.9174 1489.49 77.8872 1489.43 77.8554C1489.39 77.8357 1489.35 77.8153 1489.32 77.7914C1489.19 77.6793 1489.05 77.5814 1488.91 77.4841C1488.5 77.1967 1488.1 76.9142 1487.91 76.2862C1487.82 76.0178 1487.71 75.7538 1487.59 75.4867C1487.42 75.08 1487.24 74.6662 1487.16 74.2186C1487 73.5301 1486.94 72.8215 1486.98 72.1143C1487.1 70.9956 1487.23 69.8905 1488.04 69.0233C1488.31 68.8039 1488.61 68.618 1488.93 68.4697L1489.26 69.5938C1489.44 69.45 1489.6 69.286 1489.76 69.1203L1489.76 69.1202C1490.2 68.6824 1490.65 68.2324 1491.37 68.1089L1491.74 69.1812L1492.34 68.2951C1492.61 68.4195 1492.89 68.5258 1493.17 68.631C1493.78 68.8626 1494.37 69.0888 1494.89 69.4912C1495.31 69.7835 1495.61 70.2168 1495.73 70.7119C1495.77 70.9195 1495.84 71.1218 1495.9 71.3245C1496.02 71.716 1496.14 72.1093 1496.14 72.5464C1496.13 72.8492 1496.17 73.1524 1496.2 73.4586C1496.24 73.7575 1496.27 74.0593 1496.27 74.3662C1496.27 75.0041 1496.11 75.6066 1495.96 76.2082C1495.87 76.5684 1495.77 76.9283 1495.71 77.2952C1495.66 77.6173 1495.42 77.9098 1495.18 78.1993C1495.08 78.3299 1494.97 78.4599 1494.88 78.5917C1494.72 78.5927 1494.55 78.5943 1494.39 78.5959L1494.38 78.596ZM1426.26 69.9258L1428.02 67.3166L1427.83 67.113C1427.65 67.2637 1427.45 67.4044 1427.24 67.5452L1427.24 67.5452L1427.24 67.5452C1426.78 67.8647 1426.32 68.1843 1426.13 68.6209C1426.05 68.8032 1425.96 68.9842 1425.87 69.167L1425.87 69.1671C1425.57 69.7475 1425.27 70.345 1425.27 71.0537C1425.27 71.4716 1425.21 71.8916 1425.15 72.3113C1425.01 73.2839 1424.87 74.2549 1425.45 75.1951C1425.19 75.8824 1425.53 76.4105 1425.85 76.9174C1425.94 77.0536 1426.02 77.1883 1426.09 77.3242C1426.57 78.2032 1427.1 79.1063 1428.33 79.1279C1429.15 79.1422 1429.97 79.1952 1430.79 79.2475L1430.79 79.2476C1431.14 79.2704 1431.5 79.2932 1431.85 79.3126C1432.08 78.9117 1432.34 78.5291 1432.63 78.1683C1433.27 77.4938 1433.36 76.6201 1433.31 75.8318C1433.28 75.3712 1433.4 74.9126 1433.66 74.5313C1433.72 74.0311 1433.58 73.6133 1433.45 73.2078C1433.33 72.8497 1433.22 72.5012 1433.24 72.1143C1433.21 71.7024 1432.99 71.3295 1432.65 71.1008C1432.44 70.9778 1432.26 70.8203 1432.07 70.6622L1432.07 70.6621L1432.07 70.6621L1432.07 70.6621L1432.07 70.6621L1432.07 70.6621L1432.07 70.6621L1432.07 70.662L1432.07 70.662L1432.07 70.662L1432.07 70.662L1432.07 70.662L1432.07 70.6619L1432.07 70.6619L1432.07 70.6619L1432.07 70.6619L1432.07 70.6619L1432.07 70.6618L1432.07 70.6618L1432.07 70.6618L1432.07 70.6618C1431.64 70.3035 1431.21 69.942 1430.55 69.9705C1430.45 69.9748 1430.35 69.8333 1430.25 69.6809L1430.25 69.6809C1430.17 69.5757 1430.1 69.4653 1430.01 69.3942C1429.95 69.3392 1429.85 69.3273 1429.71 69.3115C1429.64 69.3031 1429.56 69.2936 1429.47 69.276C1429.67 69.0581 1429.83 68.8104 1429.94 68.5425C1430 68.3021 1429.97 67.8519 1429.83 67.7865C1429.42 67.6134 1428.98 67.5051 1428.53 67.4654C1428.2 67.4209 1428.07 67.6585 1427.94 67.8893C1427.9 67.9578 1427.86 68.0258 1427.82 68.0855C1427.73 68.2043 1427.65 68.3246 1427.57 68.4449L1427.57 68.445C1427.19 68.9819 1426.82 69.5199 1426.26 69.9258ZM1442.53 96.2478L1442 93.4659C1442.28 92.9984 1442.59 92.5507 1442.93 92.1261C1443.07 91.9674 1443.44 91.9608 1443.69 91.9839C1443.76 91.9899 1443.82 92.1304 1443.87 92.2705C1443.89 92.3316 1443.92 92.3926 1443.94 92.4423C1444 92.4087 1444.06 92.3713 1444.12 92.3337C1444.48 92.1131 1444.85 91.8819 1445.29 92.3227C1445.38 92.4317 1445.51 92.5022 1445.66 92.5203C1446.11 92.4798 1446.6 92.4507 1446.91 92.8117C1447.01 92.9349 1447.12 93.0571 1447.23 93.1799C1447.7 93.7022 1448.18 94.236 1448.35 94.9055C1448.77 96.5403 1449.08 98.2208 1448.69 99.9154C1448.48 100.932 1448.17 101.927 1447.76 102.885C1447.55 103.387 1447.07 103.722 1446.52 103.749C1446.13 103.757 1445.74 103.773 1445.35 103.789L1445.35 103.789L1445.35 103.789L1445.35 103.789L1445.35 103.789L1445.35 103.789L1445.35 103.789L1445.35 103.789L1445.35 103.789L1445.35 103.789L1445.35 103.789L1445.35 103.789L1445.35 103.789L1445.35 103.789L1445.35 103.789L1445.35 103.789L1445.35 103.789L1445.35 103.789L1445.35 103.789L1445.35 103.789C1444.73 103.815 1444.11 103.841 1443.49 103.833C1443.12 103.83 1442.76 103.712 1442.47 103.497C1440.82 102.16 1440.13 100.484 1440.95 98.1383C1440.99 98.0266 1441.02 97.9059 1441.05 97.7855C1441.11 97.5376 1441.17 97.291 1441.32 97.1258C1441.69 96.7902 1442.09 96.4958 1442.53 96.2478ZM1416.26 141.386L1415.91 142.214C1416.34 141.941 1416.62 141.654 1416.59 141.082C1416.57 140.717 1416.63 140.356 1416.69 139.992L1416.69 139.992C1416.77 139.502 1416.86 139.006 1416.74 138.488C1416.64 138.174 1416.58 137.85 1416.56 137.522C1416.66 135.514 1415.89 133.82 1414.86 132.195L1414.84 132.158L1414.83 132.131C1414.71 131.943 1414.55 131.691 1414.44 131.702C1414.07 131.736 1413.93 131.533 1413.78 131.318C1413.74 131.267 1413.71 131.215 1413.67 131.165C1413.55 131.021 1413.33 130.829 1413.2 130.854C1412.73 130.936 1412.3 130.841 1411.86 130.746L1411.86 130.746C1411.77 130.726 1411.67 130.705 1411.58 130.686C1411.46 130.663 1411.23 130.633 1411.24 130.96C1411.25 131.121 1411.17 131.286 1411.07 131.474C1411.02 131.565 1410.97 131.662 1410.93 131.766C1410.54 131.07 1410.14 130.609 1409.47 130.876C1409.42 131.077 1409.36 131.273 1409.31 131.464L1409.31 131.464L1409.31 131.465L1409.31 131.465L1409.31 131.465L1409.31 131.465L1409.31 131.465L1409.31 131.465L1409.31 131.465L1409.31 131.465L1409.31 131.465L1409.31 131.465L1409.31 131.465L1409.31 131.465L1409.31 131.465L1409.31 131.465L1409.31 131.465L1409.31 131.466L1409.31 131.466C1409.19 131.875 1409.07 132.264 1409.09 132.646C1409.1 133.014 1409.07 133.385 1409.04 133.758C1408.97 134.553 1408.91 135.35 1409.3 136.112C1409.14 137.868 1409.86 139.361 1410.58 140.861L1410.58 140.861L1410.58 140.862C1410.64 140.988 1410.7 141.114 1410.76 141.24C1410.95 141.769 1411.46 142.113 1412.02 142.092C1412.04 142.092 1412.07 142.092 1412.1 142.092C1412.32 142.089 1412.6 142.085 1412.7 142.499C1412.77 142.653 1412.91 142.766 1413.08 142.805C1413.25 142.844 1413.43 142.807 1413.56 142.702C1413.9 142.408 1414.34 142.304 1414.77 142.2C1415.33 142.065 1415.89 141.93 1416.26 141.386ZM1527.51 134.998L1528.08 134.37C1528.09 134.413 1528.11 134.451 1528.13 134.484C1528.15 134.546 1528.18 134.593 1528.17 134.634C1528.11 134.898 1528.06 135.164 1528.02 135.43L1528.02 135.43C1527.89 136.141 1527.76 136.852 1527.49 137.535L1527.45 137.633C1527.24 138.189 1527.03 138.718 1526.31 138.781C1526.11 138.799 1525.96 138.957 1525.81 139.115C1525.57 139.371 1525.33 139.627 1524.88 139.285C1524.15 139.612 1523.63 139.199 1523.12 138.8L1523.08 138.769C1522.73 139.078 1522.37 139.363 1521.98 139.622C1521.55 139.877 1520.9 139.593 1520.39 138.996C1520.35 138.94 1520.31 138.869 1520.28 138.799C1520.23 138.697 1520.18 138.598 1520.1 138.552L1520.07 138.537C1519.03 137.962 1519.03 137.961 1519.15 136.887C1519.17 136.345 1519.23 135.804 1519.32 135.267C1519.47 134.669 1519.36 134.037 1519.01 133.534C1518.48 132.728 1518.41 131.705 1518.82 130.83C1519.18 130.039 1519.96 129.609 1520.93 129.522L1520.96 130.057L1520.96 130.072L1520.97 130.176L1520.97 130.213L1520.97 130.223L1520.97 130.229L1520.98 130.255C1521 130.659 1521.02 131.1 1521.05 131.634C1521.18 131.448 1521.29 131.28 1521.4 131.126L1521.4 131.122L1521.4 131.118L1521.4 131.113L1521.41 131.11L1521.41 131.106C1521.62 130.783 1521.8 130.518 1521.99 130.257C1522.2 129.946 1522.24 129.953 1522.66 130.039C1522.76 130.061 1522.89 130.088 1523.05 130.116C1523.25 130.149 1523.43 130.249 1523.62 130.348C1523.98 130.542 1524.33 130.736 1524.78 130.442L1526.12 131.274C1526.94 131.785 1527.6 132.355 1527.37 133.509C1527.3 133.823 1527.37 134.161 1527.43 134.51C1527.46 134.671 1527.49 134.834 1527.51 134.998ZM1404 58.1277C1403.57 58.9278 1403.72 59.916 1404.37 60.5413L1405.49 59.8021C1405.25 60.5926 1405.2 61.2771 1405.9 61.8729C1406.17 61.7152 1406.45 61.5713 1406.73 61.4416C1406.81 61.4107 1406.9 61.3975 1406.98 61.3844C1407.23 61.3476 1407.47 61.3118 1407.39 60.8824L1408.08 61.4244C1408.5 61.165 1409.07 60.8187 1409.6 60.4943C1409.67 60.5641 1409.73 60.6329 1409.79 60.7005L1409.79 60.7017C1409.98 60.9178 1410.16 61.123 1410.35 61.3169C1410.39 61.3523 1410.57 61.3153 1410.6 61.2632C1410.66 61.1502 1410.75 60.9525 1410.7 60.8864C1410.64 60.8201 1410.56 60.772 1410.48 60.7256C1410.38 60.6696 1410.29 60.6158 1410.26 60.5352C1410.23 60.4448 1410.29 60.3236 1410.37 60.1585C1410.41 60.0726 1410.45 59.9747 1410.5 59.8631L1410.69 60.6232C1410.88 60.3439 1411.06 60.0694 1411.25 59.7986L1411.25 59.7984L1411.25 59.7982C1411.92 58.8041 1412.56 57.8604 1413.19 56.911C1413.22 56.8538 1413.22 56.775 1413.23 56.6945C1413.23 56.6319 1413.23 56.5683 1413.25 56.513C1413.35 56.2077 1413.39 55.8828 1413.44 55.5642C1413.53 54.936 1413.61 54.3324 1414.11 53.952C1414.31 53.1541 1413.87 52.8049 1413.46 52.4766C1413.19 52.2612 1412.93 52.0549 1412.87 51.7368C1412.66 51.7138 1412.45 51.7099 1412.24 51.7062C1411.79 51.6981 1411.37 51.6904 1411.08 51.4933C1410.75 51.2772 1410.4 51.2855 1410.06 51.2937C1409.71 51.3021 1409.37 51.3103 1409.07 51.0803C1408.99 51.0212 1408.66 51.1437 1408.58 51.2698C1408.43 51.4964 1408.22 51.6511 1408.01 51.8076C1407.78 51.9822 1407.54 52.1591 1407.38 52.4404C1406.76 53.5443 1406.05 54.5996 1405.26 55.5976C1404.84 56.1265 1404.59 56.7296 1404.35 57.3284C1404.24 57.598 1404.13 57.8669 1404 58.1277ZM1455.34 176.262L1455.34 176.262L1455.34 176.261C1454.85 175.88 1454.41 175.537 1453.75 175.954C1453.7 174.934 1453.96 174.413 1454.85 174.225C1455.07 174.178 1455.29 174.106 1455.5 174.035L1455.5 174.035L1455.5 174.035L1455.5 174.035L1455.5 174.035L1455.5 174.035L1455.5 174.035L1455.5 174.035L1455.5 174.035L1455.5 174.035L1455.5 174.035L1455.5 174.035L1455.5 174.035L1455.5 174.035L1455.5 174.035L1455.5 174.035C1455.88 173.912 1456.25 173.788 1456.68 173.78C1457.02 173.774 1457.35 173.598 1457.69 173.418C1457.94 173.287 1458.19 173.154 1458.44 173.085C1458.77 172.999 1459.12 173.011 1459.47 173.023C1459.63 173.028 1459.78 173.034 1459.94 173.031L1460.07 173.697L1459.23 173.719L1459.2 173.908L1460.15 174.352C1460.15 174.401 1460.14 174.466 1460.13 174.539C1460.1 174.732 1460.06 174.983 1460.16 175.161C1460.96 176.638 1461.02 178.246 1461.02 179.858C1461.02 180.171 1460.94 180.484 1460.86 180.798L1460.86 180.798C1460.8 181.014 1460.75 181.23 1460.72 181.448L1460.69 181.66C1460.53 182.802 1460.49 183.083 1459.78 183.841C1459.23 184.421 1458.64 185.036 1457.78 185.225C1457.41 185.28 1457.08 185.453 1456.82 185.718C1456.34 186.378 1455.9 186.237 1455.38 185.835C1455.23 185.722 1455.06 185.633 1454.88 185.574C1453.76 185.19 1453.68 185.098 1453.7 184.046C1453.72 182.75 1454.08 181.517 1454.43 180.287L1454.43 180.287C1454.5 180.039 1454.57 179.792 1454.64 179.544C1454.83 178.818 1455.07 178.104 1455.31 177.398L1455.31 177.398C1455.41 177.086 1455.52 176.777 1455.62 176.469C1455.52 176.402 1455.43 176.331 1455.34 176.262ZM1449.05 152.38C1449.12 152.507 1449.18 152.634 1449.25 152.762C1449.67 152.435 1450.17 152.282 1450.34 152.744C1450.58 153.405 1450.88 153.125 1451.13 152.889C1451.17 152.843 1451.22 152.792 1451.26 152.741C1451.42 152.565 1451.56 152.392 1451.81 152.462C1452.19 152.571 1452.5 152.433 1452.81 152.297C1452.94 152.239 1453.08 152.181 1453.21 152.143C1453.58 152.04 1454.06 151.769 1454.18 151.455C1454.36 150.91 1454.42 150.332 1454.35 149.764C1454.32 149.428 1454.21 149.1 1454.11 148.772C1454.04 148.555 1453.97 148.339 1453.92 148.119C1453.86 147.841 1453.81 147.559 1453.76 147.278C1453.62 146.479 1453.47 145.68 1453.1 144.945C1452.93 144.622 1452.81 144.28 1452.68 143.938L1452.68 143.938C1452.45 143.295 1452.21 142.652 1451.72 142.14C1451.2 141.674 1450.85 141.05 1450.72 140.363C1450.6 139.591 1450.21 139.435 1449.31 139.452C1449.21 139.454 1449.08 139.444 1448.95 139.434C1448.66 139.412 1448.36 139.389 1448.27 139.514C1448.04 139.839 1447.84 139.713 1447.65 139.588C1447.47 139.472 1447.29 139.357 1447.09 139.594C1446.8 141.176 1446.99 142.828 1447.19 144.472C1447.21 144.66 1447.23 144.848 1447.25 145.036C1447.38 146.204 1447.62 147.36 1447.87 148.516L1447.87 148.516C1447.98 149.079 1448.1 149.642 1448.21 150.207C1448.35 150.99 1448.7 151.679 1449.05 152.38ZM1501.88 174.213L1501.88 174.213L1501.88 174.159C1501.97 172.899 1502.15 171.647 1502.41 170.411C1502.47 170.144 1502.52 169.869 1502.56 169.593C1502.72 168.603 1502.88 167.591 1503.76 166.794C1504 167.422 1503.88 168.027 1503.75 168.655C1503.64 169.227 1503.52 169.816 1503.67 170.457C1504.05 169.7 1504.22 168.929 1504.4 168.127C1504.53 167.511 1504.67 166.878 1504.91 166.22L1505.41 167.193C1505.59 167.006 1505.78 166.811 1505.97 166.616L1507.26 167.171C1507.26 167.245 1507.26 167.329 1507.25 167.418L1507.25 167.418L1507.25 167.42C1507.24 167.641 1507.22 167.902 1507.23 168.162C1507.26 169.576 1507.27 169.586 1508.19 170.837L1508.21 170.868C1508.32 171.018 1508.4 171.178 1508.47 171.346C1509.02 172.607 1509.43 173.887 1509.24 175.308C1509.17 175.952 1508.97 176.577 1508.66 177.146C1508.59 177.27 1508.58 177.409 1508.6 177.543C1508.64 177.663 1508.6 177.792 1508.52 177.882C1508.43 177.971 1508.3 178.009 1508.18 177.98C1507.77 177.948 1507.38 178.071 1507 178.193C1506.69 178.292 1506.38 178.391 1506.06 178.408C1505.78 178.443 1505.52 178.599 1505.36 178.835C1505.08 179.149 1504.1 179.142 1503.83 178.856C1503.77 178.797 1503.75 178.708 1503.73 178.618C1503.68 178.44 1503.63 178.261 1503.34 178.319C1503.1 178.38 1502.87 178.456 1502.65 178.547C1501.67 177.066 1501.77 175.624 1501.88 174.213ZM1481.8 123.434L1482.62 123.809C1482.96 123.649 1483.07 123.343 1483.18 123.035C1483.29 122.757 1483.39 122.477 1483.66 122.302C1483.76 122.182 1483.77 122.005 1483.68 121.875C1483.59 121.745 1483.42 121.696 1483.27 121.758C1483.21 121.77 1483.13 121.659 1483.05 121.549C1483.01 121.499 1482.97 121.448 1482.93 121.409C1482.97 121.382 1483.01 121.345 1483.05 121.307C1483.13 121.228 1483.21 121.148 1483.24 121.163C1483.9 121.571 1484.07 120.904 1484.14 120.616C1484.2 120.374 1484.26 120.133 1484.32 119.891C1484.57 118.904 1484.81 117.913 1484.78 116.889L1484.78 116.875C1484.76 116.343 1484.73 115.666 1483.86 115.752C1483.82 115.755 1483.74 115.672 1483.71 115.613C1483.44 114.966 1483.01 114.952 1482.48 115.3C1482.02 115.603 1481.96 115.281 1481.91 115.03L1481.9 114.986L1480.88 115.068L1480.46 116.29C1480.38 116.127 1480.37 115.956 1480.37 115.789C1480.36 115.503 1480.35 115.227 1479.97 115.019L1479.81 115.1L1479.81 115.1L1479.8 115.1L1479.8 115.101L1479.8 115.101L1479.8 115.101C1479.64 115.18 1479.46 115.268 1479.28 115.353C1479.19 115.394 1479.1 115.452 1479.01 115.51C1478.8 115.639 1478.59 115.768 1478.45 115.713C1477.88 115.487 1477.82 115.832 1477.76 116.144C1477.75 116.184 1477.74 116.224 1477.73 116.262C1477.64 116.701 1477.56 117.144 1477.48 117.587C1477.43 117.899 1477.37 118.211 1477.31 118.521C1477.25 118.703 1477.18 118.878 1477.09 119.046L1476.85 118.977C1477.03 117.92 1477.21 116.863 1477.41 115.676C1476.74 116.301 1476.62 116.953 1476.49 117.665C1476.3 118.793 1476.26 119.939 1476.36 121.077C1476.48 122.518 1476.86 123.902 1478.39 124.563C1478.51 124.627 1478.62 124.702 1478.72 124.786L1481.72 124.193L1481.8 123.434ZM1495.75 94.9079L1495.91 95.7478L1496.18 95.4275C1496.34 95.2418 1496.49 95.0676 1496.65 94.8835C1496.82 94.952 1496.99 95.019 1497.16 95.0865C1497.57 95.2464 1497.99 95.4092 1498.39 95.602C1498.74 95.7701 1499.07 95.9894 1499.35 96.2529C1499.44 96.3365 1499.41 96.4419 1499.37 96.5613C1499.31 96.7258 1499.25 96.9168 1499.5 97.114C1499.72 97.2958 1499.68 97.7683 1499.65 98.1988L1499.65 98.1993L1499.65 98.1999L1499.65 98.2013C1499.64 98.2897 1499.63 98.3762 1499.63 98.4582C1499.62 98.5841 1499.55 98.7145 1499.48 98.8464C1499.32 99.1248 1499.16 99.4101 1499.61 99.6752L1498.88 100.904C1498.86 100.931 1498.85 100.961 1498.83 100.99L1498.82 101.015L1498.82 101.029L1499.39 104.048C1499.6 104.167 1499.79 104.302 1499.98 104.452C1500.25 104.702 1500.37 105.22 1500.09 105.301C1499.76 105.399 1499.72 105.645 1499.69 105.879C1499.66 106.082 1499.64 106.275 1499.42 106.354C1498.29 106.006 1497.98 105.838 1497.31 105.192C1497.22 105.734 1497.14 106.208 1497.04 106.802C1496.98 106.813 1496.91 106.836 1496.83 106.86C1496.65 106.918 1496.44 106.983 1496.33 106.908C1496.12 106.763 1495.9 106.629 1495.68 106.495C1494.86 105.997 1494.04 105.497 1493.72 104.466C1493.57 104.124 1493.46 103.767 1493.39 103.401C1493.33 102.695 1493.33 101.985 1493.32 101.275L1493.32 101.048L1493.32 100.914C1493.32 100.677 1493.33 100.44 1493.34 100.202C1493.35 100.03 1493.36 99.8574 1493.36 99.6848C1493.37 99.4448 1493.45 99.2127 1493.52 98.9806C1493.65 98.5991 1493.77 98.2177 1493.58 97.8013C1493.92 97.4323 1493.98 96.9895 1494.05 96.5369L1494.05 96.5366C1494.07 96.3979 1494.09 96.2582 1494.11 96.1195C1494.16 95.7383 1494.37 95.393 1494.68 95.1641C1494.98 94.9352 1495.37 94.8426 1495.75 94.9079ZM1471.73 52.4766L1470.61 51.7241C1469.94 51.1519 1469.14 50.7436 1468.28 50.5307C1467.91 50.4379 1467.53 50.4466 1467.14 50.4554C1466.75 50.4643 1466.36 50.4733 1465.97 50.3759C1465.89 50.3537 1465.71 50.4885 1465.65 50.5931C1465.46 50.9147 1465.3 51.2491 1465.16 51.594C1464.9 52.24 1464.92 52.9062 1464.95 53.5746C1464.96 53.7755 1464.97 53.9765 1464.97 54.1772C1464.98 55.8901 1465.33 57.4146 1466.88 58.4141C1467 58.4815 1467.09 58.5907 1467.14 58.7213C1467.22 59.2339 1467.55 59.2497 1467.88 59.2655C1468.06 59.2741 1468.24 59.2827 1468.38 59.3723C1469.05 59.0756 1469.75 59.1616 1470.43 59.2454C1470.67 59.2751 1470.91 59.3046 1471.15 59.3166C1471.95 59.3575 1472.36 59.1055 1472.57 58.5207C1472.62 58.4045 1472.66 58.2881 1472.71 58.1715C1473.06 57.2579 1473.42 56.3257 1473.02 55.3044C1472.97 55.1673 1472.95 55.0145 1472.93 54.8612C1472.9 54.5403 1472.87 54.2178 1472.48 54.036C1472.38 53.9568 1472.33 53.831 1472.35 53.7037C1472.64 53.0749 1472.25 52.8169 1471.85 52.5574C1471.81 52.5306 1471.77 52.5038 1471.73 52.4766ZM1428.89 109.404C1428.87 109.803 1428.86 110.096 1428.85 110.666C1428.98 110.518 1429.08 110.407 1429.16 110.32L1429.16 110.319L1429.16 110.319C1429.28 110.18 1429.35 110.099 1429.42 110.017L1429.43 110.015C1429.6 109.811 1429.69 109.701 1429.8 109.675C1429.94 109.644 1430.1 109.729 1430.45 109.916L1430.45 109.917C1430.47 109.928 1430.49 109.942 1430.51 109.956C1430.58 109.998 1430.65 110.043 1430.69 110.024C1431.19 109.778 1431.8 109.921 1432.13 110.366C1432.55 110.834 1432.88 111.381 1433.09 111.977C1433.73 114.257 1433.46 116.553 1432.93 118.82C1432.86 119.085 1432.67 119.32 1432.48 119.554C1432.4 119.661 1432.31 119.768 1432.24 119.878L1431.81 119.515C1431.55 119.972 1431.23 120.228 1430.65 119.99C1430.42 119.932 1430.18 119.992 1430 120.151C1429.76 120.442 1429.53 120.342 1429.31 120.244C1429.16 120.177 1429.01 120.111 1428.86 120.171C1428.87 119.808 1428.62 119.704 1428.37 119.601C1428.15 119.51 1427.92 119.419 1427.87 119.155C1427.84 118.964 1427.78 118.773 1427.73 118.582C1427.62 118.228 1427.52 117.876 1427.55 117.533C1427.62 116.365 1427.82 115.207 1428.15 114.08C1428.33 113.602 1428.32 113.069 1428.11 112.604C1427.74 111.896 1427.61 111.089 1427.73 110.298L1427.74 110.271C1427.85 109.614 1427.85 109.609 1428.89 109.404ZM1461.38 110.105C1461.26 110.236 1461.16 110.381 1461.08 110.538C1461.09 111.015 1461.15 111.469 1461.21 111.915C1461.23 112.126 1461.26 112.336 1461.28 112.545C1461.42 113.841 1461.55 115.172 1462.34 116.342C1462.87 117.124 1463.59 117.489 1464.32 117.236C1464.52 117.164 1464.75 117.164 1464.97 117.163C1465.38 117.162 1465.78 117.161 1466.05 116.75C1466.78 117.102 1467.04 116.476 1467.17 116.059C1467.54 114.893 1467.89 113.696 1467.72 112.449C1467.69 112.219 1467.61 111.997 1467.54 111.774L1467.54 111.774C1467.46 111.568 1467.39 111.361 1467.36 111.149C1467.3 110.798 1467.28 110.441 1467.27 110.054L1467.27 110.054C1467.26 109.879 1467.25 109.698 1467.24 109.509L1465.23 108.656L1465.08 108.815L1464.98 108.922L1464.97 108.924C1464.85 109.059 1464.72 109.196 1464.56 109.363L1463.96 107.355C1463.81 107.381 1463.65 107.423 1463.5 107.463C1463.2 107.545 1462.94 107.616 1462.83 107.516C1462.65 107.354 1462.44 107.299 1462.24 107.243C1462.04 107.188 1461.84 107.134 1461.66 106.979C1461.67 107.191 1461.82 107.332 1461.97 107.468C1462.2 107.678 1462.42 107.876 1462.07 108.309L1461.67 107.684C1461.09 108.131 1461.32 108.609 1461.55 109.105L1461.55 109.106C1461.57 109.155 1461.6 109.203 1461.62 109.253C1461.7 108.998 1461.78 108.745 1461.88 108.431C1462 108.532 1462.1 108.653 1462.18 108.788C1462.24 108.966 1462.25 109.156 1462.22 109.342C1462.2 109.391 1462.14 109.422 1462.07 109.456C1462 109.487 1461.93 109.519 1461.9 109.568C1461.86 109.623 1461.85 109.698 1461.84 109.772C1461.83 109.853 1461.82 109.933 1461.78 109.982C1461.74 110.027 1461.66 110.037 1461.58 110.046C1461.5 110.055 1461.43 110.065 1461.38 110.105ZM1470.36 139.742L1470.82 140.352C1471.21 139.815 1471.15 139.277 1471.08 138.732C1471.02 138.269 1470.96 137.8 1471.18 137.322C1471.32 137.502 1471.44 137.696 1471.54 137.903C1471.62 138.243 1471.69 138.588 1471.74 138.936C1471.97 138.551 1472.05 138.1 1471.97 137.662C1472.62 137.469 1472.91 137.384 1473.16 137.436C1473.36 137.476 1473.55 137.6 1473.88 137.821C1473.91 138.048 1473.92 138.284 1473.94 138.522L1473.94 138.522C1473.97 139.069 1474.01 139.628 1474.22 140.102C1474.43 140.56 1474.42 141.009 1474.42 141.455C1474.41 141.742 1474.41 142.028 1474.46 142.313C1474.54 143.038 1474.52 143.771 1474.38 144.489C1474.35 144.9 1474.2 145.295 1473.95 145.622C1473.62 145.971 1473.07 146.434 1472.72 146.36C1472.32 146.275 1472.14 146.439 1471.96 146.607C1471.88 146.68 1471.8 146.754 1471.7 146.808C1471.25 147.055 1470.74 147.242 1470.19 146.993C1470.08 146.94 1469.94 146.906 1469.8 146.871L1469.8 146.871C1469.57 146.811 1469.33 146.752 1469.24 146.602C1468.86 146.031 1468.59 145.391 1468.46 144.718C1468.27 143.468 1468.17 142.208 1468.15 140.944C1468.15 140.735 1468.29 140.52 1468.45 140.268L1468.45 140.268L1468.45 140.267C1468.54 140.139 1468.63 140.001 1468.71 139.849L1468.91 140.524C1469.13 140.072 1469.51 139.987 1469.86 139.906C1470.04 139.866 1470.21 139.827 1470.36 139.742ZM1433.51 179.266L1433.92 180.056C1434.13 179.602 1434.31 179.135 1434.45 178.657C1434.5 178.453 1434.43 178.075 1434.29 178.007C1433.99 177.86 1433.93 177.597 1433.87 177.352C1433.84 177.194 1433.8 177.043 1433.7 176.936C1433.46 176.665 1433.42 176.372 1433.37 176.081C1433.36 175.967 1433.34 175.854 1433.31 175.742C1433.25 175.515 1433.22 175.275 1433.19 175.036C1433.14 174.631 1433.09 174.23 1432.91 173.906C1432.72 173.583 1432.65 173.249 1432.59 172.92C1432.54 172.707 1432.5 172.495 1432.43 172.29C1432.3 171.927 1432.16 171.567 1432.02 171.208L1432.02 171.208L1432.02 171.208L1432.02 171.207L1432.02 171.207L1432.02 171.206L1432.02 171.205L1431.95 171.019C1431.91 170.923 1431.88 170.826 1431.84 170.73L1430.53 169.847C1430.37 170.376 1430.14 170.221 1429.9 170.066C1429.72 169.944 1429.54 169.821 1429.39 170.024C1429.26 170.181 1429.31 170.373 1429.36 170.568C1429.43 170.839 1429.5 171.113 1429.1 171.301C1429.07 171.201 1429.05 171.097 1429.03 170.994C1428.95 170.585 1428.88 170.189 1428.35 170.167C1427.91 170.892 1428.07 171.626 1428.23 172.36L1428.25 172.465C1428.29 172.606 1428.32 172.75 1428.33 172.895C1428.38 174.5 1428.54 176.098 1428.82 177.677C1428.85 177.861 1428.84 178.053 1428.83 178.245C1428.82 178.424 1428.81 178.602 1428.84 178.775L1428.85 178.846C1428.94 179.482 1429.04 180.14 1429.72 180.471C1429.92 180.234 1429.93 179.948 1429.93 179.668C1429.94 179.33 1429.94 179 1430.3 178.772L1430.69 180.828L1431.59 180.887L1431.91 179.18C1432.48 180.076 1432.58 180.069 1433.51 179.266ZM1480.47 93.1232C1480.61 93.2288 1480.75 93.2955 1480.88 93.359C1481.14 93.4809 1481.37 93.5909 1481.5 93.9412L1480.9 93.7817C1480.85 93.9397 1480.8 94.0983 1480.75 94.257L1480.75 94.2573L1480.75 94.2576L1480.75 94.2579L1480.75 94.2582C1480.62 94.6855 1480.49 95.1131 1480.33 95.5295C1480.27 95.6765 1480.04 95.8819 1479.92 95.8598C1479.56 95.7888 1479.24 95.9055 1478.92 96.021C1478.69 96.1027 1478.47 96.1838 1478.23 96.1975C1477.96 96.1855 1477.69 96.1046 1477.46 95.9623C1477.4 95.9315 1477.37 95.8523 1477.34 95.7732C1477.3 95.6946 1477.27 95.6162 1477.21 95.5855C1477.04 95.5341 1476.85 95.5153 1476.67 95.53L1476.69 95.4668C1476.96 94.6513 1476.98 94.6092 1476.37 93.7988C1476.13 93.4901 1476.13 93.1602 1476.13 92.8256C1476.13 92.6215 1476.13 92.4157 1476.07 92.212L1475.7 92.4366L1475.49 92.5595C1475.48 92.4912 1475.46 92.4183 1475.44 92.347C1475.4 92.1981 1475.36 92.0562 1475.41 91.9782C1476.39 90.5339 1476.42 90.5001 1476.34 89.1887C1475.85 89.4317 1475.82 89.8391 1475.79 90.2704C1475.77 90.5562 1475.75 90.8524 1475.59 91.1183C1475.54 91.0706 1475.48 91.0219 1475.41 90.9745C1475.29 90.8764 1475.16 90.7841 1475.18 90.7191C1475.21 90.5765 1475.23 90.4325 1475.26 90.2886C1475.41 89.4603 1475.55 88.6391 1476.48 88.1438C1476.53 88.121 1476.56 88.0991 1476.6 88.0785C1476.86 87.9362 1476.99 87.8618 1477.29 88.0552C1477.53 88.179 1477.8 88.238 1478.07 88.2265C1478.55 88.2395 1479.04 88.233 1479.54 88.2262L1479.54 88.2262L1479.54 88.2262C1479.75 88.2234 1479.97 88.2205 1480.19 88.2189L1480.18 88.6521C1480.27 88.8866 1480.49 88.9369 1480.68 88.9799C1480.93 89.0388 1481.13 89.0842 1480.86 89.5697C1480.81 89.6617 1480.91 89.6886 1481.02 89.7206C1481.21 89.7718 1481.44 89.8361 1481.19 90.199C1481.09 90.3574 1481.18 90.651 1481.27 90.9335L1481.27 90.9335L1481.27 90.9336C1481.31 91.0587 1481.35 91.1816 1481.37 91.2896C1481.26 91.3703 1481.14 91.4488 1481.03 91.5262L1480.77 91.7113C1480.8 91.7931 1480.83 91.8747 1480.87 91.9563L1481.15 91.8004L1481.65 91.5323C1481.63 91.8989 1481.61 92.1555 1481.59 92.414L1481.57 92.7371C1481.23 92.8565 1480.85 92.99 1480.47 93.1232ZM1415.24 100.6L1415.35 102.046C1415.56 102.046 1415.76 102.022 1415.96 101.975C1416.12 101.885 1416.27 101.785 1416.41 101.677L1416.44 101.662L1416.44 101.662C1416.58 101.576 1416.81 101.44 1416.84 101.472C1417.07 101.727 1417.37 101.687 1417.68 101.648C1418 101.605 1418.33 101.563 1418.56 101.884C1418.67 101.819 1418.77 101.749 1418.86 101.674C1418.7 101.398 1418.86 101.254 1419.03 101.112C1419.11 101.037 1419.19 100.962 1419.23 100.869C1419.39 100.47 1419.39 100.069 1419.39 99.672C1419.39 99.3916 1419.39 99.1135 1419.45 98.8397C1419.7 97.657 1419.67 96.4345 1419.37 95.2668L1416.67 93.9497L1415.87 95.1336C1415.72 94.9387 1415.69 94.7005 1415.66 94.4695C1415.62 94.138 1415.58 93.8214 1415.21 93.6688C1414.62 94.2396 1414.2 94.9001 1414.22 95.662C1414.24 96.2925 1414.2 96.9203 1414.17 97.5474C1414.14 98.1522 1414.1 98.7563 1414.11 99.3614C1414.1 99.942 1414.23 100.516 1414.51 101.024L1415.24 100.6ZM1432.2 134.808L1431.93 136.244L1432.55 135.803C1432.55 135.81 1432.56 135.818 1432.56 135.827C1432.57 135.842 1432.58 135.857 1432.59 135.872C1432.62 135.922 1432.65 135.972 1432.64 136.006C1432.46 136.487 1432.42 137.003 1432.51 137.504C1432.54 137.823 1432.54 138.145 1432.49 138.463C1432.39 139.005 1432.57 139.557 1432.97 139.935C1433.15 139.829 1433.34 139.72 1433.43 139.669L1433.76 140.615C1433.72 140.675 1433.69 140.723 1433.67 140.759C1433.63 140.815 1433.62 140.842 1433.6 140.842C1433.35 140.839 1433.1 140.828 1432.87 140.818L1432.68 140.81C1432.52 141.181 1432.37 141.519 1432.14 142.023L1431.58 141.039L1430.95 141.395L1430.42 141.698L1429.79 141.371L1429.43 141.911C1428.51 141.959 1428.06 141.563 1427.86 140.725C1427.77 140.378 1427.67 140.037 1427.57 139.69L1427.57 139.69C1427.4 139.123 1427.23 138.544 1427.13 137.911L1428.2 137.918C1428.4 137.325 1428.47 136.698 1428.4 136.078C1428.36 135.617 1428.44 135.146 1428.52 134.683L1428.52 134.682C1428.55 134.481 1428.59 134.282 1428.61 134.085C1429.13 133.927 1429.27 134.215 1429.42 134.518C1429.46 134.599 1429.51 134.68 1429.55 134.755C1429.59 134.718 1429.62 134.684 1429.66 134.65C1429.73 134.579 1429.8 134.512 1429.82 134.434C1429.94 133.722 1430.23 133.522 1430.76 133.845C1431.11 134.055 1431.44 134.285 1431.77 134.512C1431.91 134.612 1432.06 134.711 1432.2 134.808ZM1394.56 117.659L1394.56 116.416L1394.51 116.416L1394.45 116.415C1394.13 116.411 1393.85 116.407 1393.57 116.74C1392.95 117.497 1392.81 118.394 1392.66 119.289C1392.63 119.52 1392.59 119.75 1392.55 119.977C1392.46 120.433 1392.98 120.957 1393.54 121.175C1393.75 121.268 1393.96 121.388 1394.15 121.532C1394.6 121.913 1395.28 121.863 1395.68 121.419C1395.99 121.125 1396.23 120.95 1396.66 121.09C1397.03 121.239 1397.45 121.067 1397.61 120.701C1397.63 120.667 1397.65 120.631 1397.67 120.595C1397.83 120.305 1398 120.006 1398.43 119.97C1398.6 119.878 1398.72 119.704 1398.73 119.509C1398.73 119.414 1398.66 119.31 1398.6 119.212C1398.53 119.109 1398.46 119.014 1398.49 118.944C1398.52 118.858 1398.63 118.806 1398.75 118.752C1398.85 118.703 1398.96 118.652 1399.02 118.571C1399.41 118.005 1399.19 117.422 1398.86 116.951C1398.77 116.825 1398.64 116.733 1398.51 116.638C1398.31 116.496 1398.1 116.349 1398.02 116.071C1398.01 116.046 1397.85 116.071 1397.66 116.101L1397.66 116.101L1397.66 116.101C1397.51 116.125 1397.34 116.152 1397.21 116.158C1397.07 116.143 1396.93 116.109 1396.79 116.056L1396.12 117.05C1396.18 116.642 1396.22 116.437 1396.24 116.268L1395.54 115.794C1395.48 115.949 1395.42 116.099 1395.36 116.245L1395.36 116.245C1395.21 116.639 1395.07 117.006 1394.91 117.366C1394.89 117.433 1394.81 117.48 1394.72 117.542C1394.67 117.575 1394.62 117.612 1394.56 117.659ZM1448.07 120.68L1448.87 121.649C1449.3 121.368 1449.6 121.024 1449.5 120.441C1449.9 120.381 1450.03 120.628 1450.16 120.885C1450.25 121.061 1450.34 121.242 1450.53 121.33L1451.08 120.761C1451.37 120.695 1451.47 120.876 1451.58 121.067C1451.69 121.256 1451.81 121.454 1452.1 121.434C1452.47 121.41 1452.49 121.669 1452.51 121.947C1452.52 122.13 1452.54 122.321 1452.65 122.443C1452.8 122.666 1452.88 122.93 1452.88 123.2C1452.91 123.562 1452.85 123.92 1452.79 124.28C1452.7 124.78 1452.61 125.283 1452.77 125.807C1452.82 125.951 1452.68 126.154 1452.52 126.386C1452.44 126.502 1452.35 126.625 1452.28 126.751C1452.05 126.345 1451.74 126.424 1451.42 126.504C1451.12 126.58 1450.82 126.656 1450.58 126.317C1450.46 126.374 1450.35 126.48 1450.24 126.588C1449.98 126.838 1449.72 127.101 1449.17 126.804L1449.23 125.915L1448.88 126.12L1448.52 126.332C1448.07 126.16 1448.09 125.711 1448.11 125.394L1448.12 125.351C1448.18 124.32 1447.98 123.292 1447.54 122.362C1447.26 121.772 1447.31 121.147 1448.07 120.68ZM1461.64 84.5806L1463.99 84.4055C1464.04 84.265 1464.11 84.1166 1464.19 83.9628C1464.36 83.6037 1464.55 83.2147 1464.56 82.8242C1464.59 81.8272 1464.47 80.8318 1464.2 79.8734C1463.87 78.7791 1463.32 77.699 1461.81 77.9463C1461.71 77.9621 1461.6 77.915 1461.48 77.8617C1461.42 77.834 1461.35 77.8046 1461.28 77.7817C1461.23 77.9048 1461.17 78.0216 1461.11 78.1329C1460.98 78.3601 1460.87 78.5643 1460.89 78.7524C1460.91 78.879 1460.93 79.0054 1460.94 79.1314C1461.04 79.8821 1461.14 80.622 1460.73 81.3429C1460.9 81.8853 1460.81 82.4183 1460.72 82.9472C1460.67 83.2645 1460.62 83.5804 1460.62 83.8959L1461.64 84.5806Z" fill="#F5D3AB"/>
</g>
</svg>
